<svg width="100" height="100" viewBox="0 0 100 100" xmlns="http://www.w3.org/2000/svg">
  <!-- Cruz principal -->
  <rect x="45" y="15" width="10" height="35" fill="white"/>
  <rect x="32" y="28" width="36" height="8" fill="white"/>
  
  <!-- Base del cáliz (escalones) -->
  <rect x="25" y="80" width="50" height="4" fill="white"/>
  <rect x="30" y="75" width="40" height="4" fill="white"/>
  <rect x="35" y="70" width="30" height="4" fill="white"/>
  
  <!-- Copa del cáliz -->
  <path d="M35 50 Q35 45 40 45 L60 45 Q65 45 65 50 L65 65 Q65 70 60 70 L40 70 Q35 70 35 65 Z" fill="white"/>
  
  <!-- Pie del cáliz -->
  <rect x="42" y="65" width="16" height="8" fill="white"/>
  
  <!-- Decoración lateral (pequeñas curvas) -->
  <path d="M28 52 Q23 55 28 58" stroke="white" stroke-width="2" fill="none"/>
  <path d="M72 52 Q77 55 72 58" stroke="white" stroke-width="2" fill="none"/>
</svg>
